<svg width="960" height="300" viewBox="0 0 960 300" fill="none" xmlns="http://www.w3.org/2000/svg">
  <defs>
    <linearGradient id="bg" x1="0" y1="0" x2="960" y2="300" gradientUnits="userSpaceOnUse">
      <stop stop-color="#050816"/>
      <stop offset="0.44" stop-color="#0B1026"/>
      <stop offset="1" stop-color="#061B2B"/>
    </linearGradient>
    <linearGradient id="scan" x1="72" y1="54" x2="740" y2="222" gradientUnits="userSpaceOnUse">
      <stop stop-color="#F7DF1E"/>
      <stop offset="0.24" stop-color="#3178C6"/>
      <stop offset="0.5" stop-color="#61DAFB"/>
      <stop offset="0.74" stop-color="#8B5CF6"/>
      <stop offset="1" stop-color="#22C55E"/>
    </linearGradient>
    <filter id="glow" x="-25%" y="-25%" width="150%" height="150%">
      <feGaussianBlur stdDeviation="8" result="blur"/>
      <feMerge>
        <feMergeNode in="blur"/>
        <feMergeNode in="SourceGraphic"/>
      </feMerge>
    </filter>
  </defs>

  <rect width="960" height="300" fill="url(#bg)"/>
  <path d="M0 52H960M0 104H960M0 156H960M0 208H960M0 260H960" stroke="#172033" stroke-width="1"/>
  <path d="M90 0V300M186 0V300M282 0V300M378 0V300M474 0V300M570 0V300M666 0V300M762 0V300M858 0V300" stroke="#172033" stroke-width="1"/>
  <path d="M34 238L190 116L320 172L456 76L594 126L736 62L910 118" stroke="url(#scan)" stroke-width="3" stroke-linecap="square" filter="url(#glow)"/>

  <g font-family="Inter, Segoe UI, Arial, sans-serif">
    <text x="56" y="72" fill="#94A3B8" font-size="18" font-weight="800" letter-spacing="6">RAJAT77A / PROFILE README</text>
    <text x="54" y="138" fill="#F8FAFC" font-size="56" font-weight="900">Rajat Krishnan</text>
    <text x="58" y="180" fill="#CBD5E1" font-size="21" font-weight="650">Building useful web products with AI workflows, data thinking, and clean execution.</text>
  </g>

  <g font-family="Inter, Segoe UI, Arial, sans-serif" font-size="14" font-weight="900">
    <rect x="58" y="214" width="138" height="42" fill="#101A32" stroke="#3178C6" stroke-width="2"/>
    <text x="82" y="241" fill="#93C5FD">FULL STACK</text>
    <rect x="212" y="214" width="128" height="42" fill="#2A1E06" stroke="#F7DF1E" stroke-width="2"/>
    <text x="238" y="241" fill="#FEF08A">PRODUCT</text>
    <rect x="356" y="214" width="118" height="42" fill="#241044" stroke="#8B5CF6" stroke-width="2"/>
    <text x="392" y="241" fill="#DDD6FE">AI TOOLS</text>
    <rect x="490" y="214" width="122" height="42" fill="#052E16" stroke="#22C55E" stroke-width="2"/>
    <text x="526" y="241" fill="#BBF7D0">DATA</text>
  </g>

  <g transform="translate(700 48)">
    <path d="M78 0L156 45V136L78 182L0 136V45L78 0Z" fill="#111827" stroke="#61DAFB" stroke-width="3"/>
    <path d="M78 0L156 45L78 91L0 45L78 0Z" fill="#3178C6"/>
    <path d="M0 45L78 91V182L0 136V45Z" fill="#8B5CF6"/>
    <path d="M156 45L78 91V182L156 136V45Z" fill="#22C55E"/>
    <path d="M78 0L156 45L78 91L0 45L78 0Z" fill="#61DAFB" opacity="0.35"/>
    <animateTransform attributeName="transform" type="translate" values="700 48; 700 38; 700 48" dur="4s" repeatCount="indefinite"/>
  </g>
</svg>
