<svg width="960" height="300" viewBox="0 0 960 300" fill="none" xmlns="http://www.w3.org/2000/svg">
  <defs>
    <linearGradient id="bg" x1="0" y1="0" x2="960" y2="300" gradientUnits="userSpaceOnUse">
      <stop stop-color="#17110C"/>
      <stop offset="0.52" stop-color="#231812"/>
      <stop offset="1" stop-color="#0D2A2A"/>
    </linearGradient>
    <linearGradient id="gold" x1="104" y1="65" x2="832" y2="225" gradientUnits="userSpaceOnUse">
      <stop stop-color="#F8D77E"/>
      <stop offset="0.5" stop-color="#E59F3A"/>
      <stop offset="1" stop-color="#76C7B7"/>
    </linearGradient>
    <linearGradient id="cubeA" x1="700" y1="66" x2="823" y2="194" gradientUnits="userSpaceOnUse">
      <stop stop-color="#F6C86A"/>
      <stop offset="1" stop-color="#B66E2E"/>
    </linearGradient>
    <linearGradient id="cubeB" x1="740" y1="82" x2="875" y2="232" gradientUnits="userSpaceOnUse">
      <stop stop-color="#79D0BB"/>
      <stop offset="1" stop-color="#205D5B"/>
    </linearGradient>
    <filter id="shadow" x="-20%" y="-20%" width="140%" height="140%">
      <feDropShadow dx="0" dy="18" stdDeviation="18" flood-color="#000000" flood-opacity="0.42"/>
    </filter>
  </defs>

  <rect width="960" height="300" rx="24" fill="url(#bg)"/>
  <path d="M42 232C155 160 244 256 364 190C474 130 542 40 690 70C803 93 872 168 930 100" stroke="#F6C86A" stroke-opacity="0.16" stroke-width="2"/>
  <path d="M40 70C151 134 242 52 340 104C456 166 552 252 704 224C804 206 866 150 922 188" stroke="#76C7B7" stroke-opacity="0.18" stroke-width="2"/>

  <g filter="url(#shadow)">
    <path d="M717 86L780 50L844 87L781 124L717 86Z" fill="#FFE0A2">
      <animateTransform attributeName="transform" type="translate" values="0 0; 0 -8; 0 0" dur="5s" repeatCount="indefinite"/>
    </path>
    <path d="M717 86L781 124V198L717 160V86Z" fill="url(#cubeA)">
      <animateTransform attributeName="transform" type="translate" values="0 0; 0 -8; 0 0" dur="5s" repeatCount="indefinite"/>
    </path>
    <path d="M844 87L781 124V198L844 160V87Z" fill="url(#cubeB)">
      <animateTransform attributeName="transform" type="translate" values="0 0; 0 -8; 0 0" dur="5s" repeatCount="indefinite"/>
    </path>
  </g>

  <g opacity="0.92">
    <circle cx="846" cy="62" r="8" fill="#F6C86A">
      <animate attributeName="cy" values="62;50;62" dur="4s" repeatCount="indefinite"/>
    </circle>
    <circle cx="688" cy="204" r="10" fill="#76C7B7">
      <animate attributeName="cy" values="204;216;204" dur="4.6s" repeatCount="indefinite"/>
    </circle>
    <circle cx="875" cy="214" r="5" fill="#E9A646">
      <animate attributeName="cy" values="214;202;214" dur="3.8s" repeatCount="indefinite"/>
    </circle>
  </g>

  <text x="58" y="88" fill="#F8D77E" font-family="Inter, Segoe UI, Arial, sans-serif" font-size="18" font-weight="700" letter-spacing="4">PORTFOLIO README</text>
  <text x="56" y="148" fill="url(#gold)" font-family="Inter, Segoe UI, Arial, sans-serif" font-size="54" font-weight="800">Rajat Krishnan</text>
  <text x="60" y="190" fill="#FFF7E6" font-family="Inter, Segoe UI, Arial, sans-serif" font-size="22" font-weight="600">Creative engineer building practical products, clean systems, and data-backed ideas.</text>

  <g font-family="Inter, Segoe UI, Arial, sans-serif" font-size="15" font-weight="700">
    <rect x="60" y="222" width="138" height="34" rx="17" fill="#2E2117" stroke="#E59F3A" stroke-opacity="0.55"/>
    <text x="82" y="244" fill="#F8D77E">Product Builder</text>
    <rect x="214" y="222" width="128" height="34" rx="17" fill="#142A28" stroke="#76C7B7" stroke-opacity="0.55"/>
    <text x="236" y="244" fill="#B8F1E5">Full Stack</text>
    <rect x="358" y="222" width="150" height="34" rx="17" fill="#2E2117" stroke="#E59F3A" stroke-opacity="0.55"/>
    <text x="380" y="244" fill="#F8D77E">Data Curious</text>
    <rect x="524" y="222" width="92" height="34" rx="17" fill="#142A28" stroke="#76C7B7" stroke-opacity="0.55"/>
    <text x="548" y="244" fill="#B8F1E5">VIT CSE</text>
  </g>
</svg>
